# xmcd
#
# Track frame offsets:
#	150
#	13588
#	31928
#	44510
#	57313
#	69633
#	85938
#	102261
#	114147
#	130423
#	144477
#	156450
#	170513
#	187043
#	203845
#	211318
#	229688
#	245013
#	261091
#	275454
#
# Disc length: 3797 seconds
#
# Revision: 1
# Processed by: cddbd v1.5.2PL0 Copyright (c) Steve Scherf et al.
# Submitted via: audiograbber 1.83.01
#
DISCID=240ed314
DTITLE=Smoky Dawson - The Great Smoky Dawson (Disk 1)
DYEAR=2006
DGENRE=Country
TTITLE0=Ridin' (With A Smile and A Song)
TTITLE1=Good Time Radio
TTITLE2=The Days Of Old Khancoban
TTITLE3=My Favourite Country Song
TTITLE4=Everybody Knows Why Everybody Goes To Tamworth
TTITLE5=Dingo
TTITLE6=Country Music Binds Us Soul To Soul
TTITLE7=The Lad With The Laughing Eyes
TTITLE8=Homestead Of My Dreams
TTITLE9=Darkness Into Light
TTITLE10=Friendship Golden Friendship
TTITLE11=Land Of The Twilight Zone
TTITLE12=The Kids On The Street
TTITLE13=Sing A Happy Song
TTITLE14=A Country Mile Away
TTITLE15=The Railway Line That Runs Nowhere
TTITLE16=On The Road To Anywhere
TTITLE17=John Durack
TTITLE18=Johnny Come On Home
TTITLE19=A Bushfire Fighting Man
EXTD=
EXTT0=
EXTT1=
EXTT2=
EXTT3=
EXTT4=
EXTT5=
EXTT6=
EXTT7=
EXTT8=
EXTT9=
EXTT10=
EXTT11=
EXTT12=
EXTT13=
EXTT14=
EXTT15=
EXTT16=
EXTT17=
EXTT18=
EXTT19=
PLAYORDER=
